DataType=double
version=3
OpenSimVersion=4.3
endheader
time	trunk_rz	trunk_rx	trunk_ry	trunk_tx	trunk_ty	trunk_tz	neck_flexion	neck_lateral_bending	neck_rotation	arm_flex_r	arm_add_r	arm_rot_r	elbow_flex_r	pro_sup_r	wrist_flex_r	wrist_dev_r	hand_finger_flex_r
4.49209	-0.1127218696177477	-0.1025176907310666	-1.350305286048934	-0.8332796770405682	0.8812659611918046	-0.8566489602483103	0	0	0	-0.814272385721458	-0.02657165044071868	-1.332708541688507	1.720181956425027	-1.333052772794235	-0.3283809878785773	-0.43633231	0
4.50205	-0.09509918490583399	-0.09463573014752782	-1.340487334963428	-0.8271461208890455	0.8824999673354643	-0.8603010136858309	0	0	0	-0.8286511671502972	-0.04878925461946534	-1.36869714696613	1.72859427651959	-1.343780890203904	-0.3235147528492767	-0.43633231	0
4.51399	-0.07739168848457882	-0.0863704794796048	-1.331092253301923	-0.8210260270873186	0.8838612143372339	-0.8640956076385037	0	0	0	-0.8440250605525401	-0.07003284216670624	-1.405318880955499	1.737724552616158	-1.353072049168808	-0.3180022034619901	-0.43633231	0
4.52097	-0.05917003787928343	-0.07763470808458185	-1.322132665159587	-0.8145631371725605	0.8854213081863039	-0.8680334723587989	0	0	0	-0.8612272814539345	-0.09289337176606169	-1.441967412390522	1.743518847881002	-1.366368151974659	-0.3120932728027806	-0.43633231	0
4.53093	-0.0435373341192061	-0.06881481666216167	-1.31314461088859	-0.80929573530573	0.8869933888162806	-0.872061869037592	0	0	0	-0.876151587546389	-0.1101870527071423	-1.479488101424514	1.751704488398052	-1.371460446260463	-0.3059048799236223	-0.43633231	0
4.54188	-0.02423987497926723	-0.05836471503347268	-1.305649241738233	-0.8023007377640421	0.8887919845211413	-0.8765827820778391	0	0	0	-0.8964746514387322	-0.1345146726561437	-1.518347432568156	1.754182284565434	-1.405950197978509	-0.2948299222175372	-0.43633231	0
4.55084	-0.00736283424676763	-0.04984832153710596	-1.297364939372421	-0.7964149931157984	0.8906950486663123	-0.8804842298859642	0	0	0	-0.9171678079782193	-0.1528060180431672	-1.554056574877267	1.760192860259661	-1.404482427430646	-0.2871751235407617	-0.43633231	0
4.5608	-0.001200140622501596	-0.04399813108900565	-1.297192089741416	-0.7943326937017043	0.8920374961841412	-0.8828680693019365	0	0	0	-0.9346696558291515	-0.171017325246156	-1.57079633	1.761613839510835	-1.404035590080558	-0.2771432460818286	-0.43633231	0
4.56976	-0.002441258479620966	-0.03992353349806525	-1.300705848588512	-0.795079235451048	0.8929705712658575	-0.8844137299854489	0	0	0	-0.9489956941350838	-0.184727929565063	-1.57079633	1.764895398241295	-1.386594657202066	-0.2360139667303971	-0.43633231	0
4.58071	-0.008450839296605778	-0.04055377961243235	-1.298935883847919	-0.7974320022536324	0.89366533603889	-0.8848022816411565	0	0	0	-0.9637842002178648	-0.1915581406779639	-1.57079633	1.760952135722515	-1.375974672310854	-0.1972477122874383	-0.43633231	0
4.59166	-0.01114876537414349	-0.03786913819919493	-1.304081293061729	-0.7988245126063036	0.8946045921363395	-0.8857019561419157	0	0	0	-0.9756819589294177	-0.202884955992953	-1.57079633	1.764477041669455	-1.368754773106177	-0.1483103584808739	-0.43633231	0
4.60162	-0.01920014926544125	-0.04461664395006491	-1.301308891389857	-0.8021180544741359	0.8953282942733978	-0.883938173042256	0	0	0	-0.9917353850063857	-0.2035669645348734	-1.57079633	1.76098537018463	-1.367532070188375	-0.1039033282923547	-0.43633231	0
4.61059	-0.02301269830359859	-0.03737190153910975	-1.306445605436025	-0.8035288831110217	0.8961077730987714	-0.8865985713251886	0	0	0	-1.000431441726765	-0.2182123526452092	-1.57079633	1.758448851207774	-1.363812531306725	-0.0684871638984937	-0.43633231	0
4.62054	-0.02632835942491535	-0.0404788576600254	-1.30563749355614	-0.8050473256687325	0.8970097073050166	-0.8859324838536049	0	0	0	-1.01832698777092	-0.2222352557710983	-1.57079633	1.758012045964497	-1.373961903349089	0.01016836158468363	-0.43633231	0
4.63249	-0.03153022398309729	-0.04287173349617039	-1.304095135210053	-0.807096731934525	0.8977841207201129	-0.885669923540738	0	0	0	-1.034478280312273	-0.2261942375422247	-1.57079633	1.754235562692346	-1.398192044121947	0.0809389847413302	-0.43633231	0
4.64046	-0.04280152674505252	-0.04223413721442006	-1.307606600079339	-0.8116032463511811	0.8982295394502071	-0.8860110723277251	0	0	0	-1.039713392615651	-0.2294278738306908	-1.57079633	1.7536959930247	-1.397215202261653	0.08247959156166716	-0.43633231	0
4.65141	-0.04563504104996592	-0.04281429795837078	-1.306816161135899	-0.8126210407722041	0.899239722160815	-0.8864073443924325	0	0	0	-1.052225040987032	-0.2352403196266808	-1.57079633	1.749497232381065	-1.434920971692779	0.2025630632744157	-0.43633231	0
4.66137	-0.05295725502893722	-0.05062631666568147	-1.302880650249499	-0.8154553048308261	0.8999551504795341	-0.8843028345524152	0	0	0	-1.070967864430388	-0.2337535863382184	-1.57079633	1.745716256669145	-1.42626200688742	0.2221686249592026	-0.43633231	0
4.67232	-0.06066752743151855	-0.05209903636471815	-1.300483259059952	-0.8183738554806064	0.9007291275308551	-0.8844425977688337	0	0	0	-1.079779538089092	-0.2338120084836981	-1.57079633	1.741484346471373	-1.412646049270777	0.2633783094318088	-0.43633231	0
4.68029	-0.06229008986535661	-0.0526797085803833	-1.297093279541825	-0.8187789730103341	0.9014147165660161	-0.8849367358629104	0	0	0	-1.102192413736182	-0.2393362233949617	-1.57079633	1.736072432968479	-1.417618532617692	0.3094442323325189	-0.43633231	0
4.69025	-0.0759927608529421	-0.05728478376235797	-1.297042978148762	-0.8241057364802504	0.9022260994337762	-0.8837732305890383	0	0	0	-1.100915321338888	-0.235119753211465	-1.57079633	1.732982157372295	-1.421757723395223	0.3437473835217298	-0.43633231	0
4.70021	-0.07009180383442032	-0.05001810913994924	-1.299517057867902	-0.8218358193436081	0.9029571967986718	-0.8865951824223378	0	0	0	-1.12393433009521	-0.2500938212519733	-1.57079633	1.736028250474073	-1.483453394070703	0.4792114588122112	-0.43633231	0
4.71116	-0.07952586439335223	-0.05718556997203419	-1.293894194893807	-0.8254177402693254	0.9035912740534797	-0.8848855725320094	0	0	0	-1.138199289574585	-0.2445177624756861	-1.57079633	1.730770455965166	-1.480957114220948	0.4907490253126319	-0.43633231	0
4.72311	-0.08239358701774738	-0.05944612024386552	-1.289258546673767	-0.8263896389080477	0.9042963000660911	-0.8848179646989361	0	0	0	-1.156734465828675	-0.2450481474230011	-1.57079633	1.726119043581261	-1.470821088612996	0.527141986196074	-0.43633231	0
4.73406	-0.09171999689555464	-0.05847700125465558	-1.291993660970217	-0.8299784732987803	0.9048335530330519	-0.8853027833225638	0	0	0	-1.161571081166403	-0.246712457858483	-1.57079633	1.725767688828129	-1.47010231352329	0.5283745580842769	-0.43633231	0
4.74302	-0.1000946975216972	-0.06553769958107587	-1.292846838157577	-0.8328061883917699	0.9057712574431265	-0.8831071131889754	0	0	0	-1.169414816829867	-0.2494614520529197	-1.57079633	1.717047690858313	-1.467243622107335	0.539822897061344	-0.43633231	0
4.75298	-0.09335730930745179	-0.06096805273756089	-1.284553799631442	-0.8303704354508871	0.9061863300928737	-0.8858248541598167	0	0	0	-1.199061285220338	-0.2529579739864847	-1.57079633	1.719934612737047	-1.514630569702409	0.6884346622470243	-0.43633231	0
